<?xml version="1.0" standalone="no"?>
<!DOCTYPE svg PUBLIC "-//W3C//DTD SVG 20010904//EN"
 "http://www.w3.org/TR/2001/REC-SVG-20010904/DTD/svg10.dtd">
<svg version="1.0" xmlns="http://www.w3.org/2000/svg"
 width="200.000000pt" height="200.000000pt" viewBox="0 0 200.000000 200.000000"
 preserveAspectRatio="xMidYMid meet">

<g transform="translate(0.000000,200.000000) scale(0.100000,-0.100000)"
fill="#000000" stroke="none">
<path d="M1002 1876 c-7 -16 -24 -37 -37 -48 -29 -22 -32 -50 -9 -69 13 -11
14 -9 8 15 -5 22 -1 33 26 61 18 18 30 41 28 51 -2 14 -6 12 -16 -10z"/>
<path d="M272 1852 l-63 -36 3 -89 3 -88 67 -36 67 -37 65 34 c37 18 70 38 75
44 9 11 10 161 1 169 -24 20 -129 77 -140 76 -8 -1 -43 -17 -78 -37z m136 -48
c26 -17 28 -30 5 -42 -12 -7 -24 -5 -39 5 -39 25 -86 -16 -64 -57 13 -24 37
-32 61 -19 23 12 62 2 57 -14 -2 -7 -20 -20 -40 -30 -33 -16 -40 -17 -73 -3
-64 27 -81 109 -32 154 37 34 77 36 125 6z m32 -74 c0 -11 -4 -20 -9 -20 -14
0 -23 18 -16 30 10 17 25 11 25 -10z m40 6 c0 -8 -4 -17 -9 -21 -12 -7 -24 12
-16 25 9 15 25 12 25 -4z"/>
<path d="M990 1815 c-13 -15 -5 -70 11 -81 15 -9 23 25 9 40 -8 11 -9 20 0 35
12 24 -2 28 -20 6z"/>
<path d="M1069 1731 c13 -8 13 -12 0 -27 -12 -15 -12 -17 1 -12 23 7 26 48 3
48 -15 0 -15 -2 -4 -9z"/>
<path d="M1573 1733 c-8 -3 -13 -23 -13 -53 0 -27 -4 -52 -10 -55 -5 -3 -10
-2 -10 4 0 6 -6 8 -14 5 -24 -9 -6 -34 25 -34 34 0 38 8 43 78 3 55 0 62 -21
55z"/>
<path d="M1638 1729 c-27 -15 -23 -57 7 -71 25 -11 29 -36 6 -30 -6 1 -17 3
-23 5 -7 1 -13 -5 -13 -13 0 -10 12 -16 37 -18 28 -2 39 1 47 17 13 24 5 48
-19 56 -10 3 -24 13 -32 22 -11 15 -10 16 9 11 27 -7 42 10 22 23 -17 11 -20
11 -41 -2z"/>
<path d="M900 1719 c0 -5 28 -9 62 -9 34 0 59 2 57 4 -10 8 -119 14 -119 5z"/>
<path d="M920 1680 c18 -12 68 -12 95 0 14 6 0 9 -45 9 -45 1 -60 -2 -50 -9z"/>
<path d="M930 1650 c8 -5 29 -10 45 -10 17 0 37 5 45 10 11 7 -3 10 -45 10
-42 0 -56 -3 -45 -10z"/>
<path d="M877 1643 c-18 -18 1 -23 86 -25 l92 -2 -70 -6 -70 -6 65 -2 c36 0
74 3 85 8 13 6 15 9 5 9 -10 1 -11 4 -3 9 6 4 -32 6 -85 4 -69 -2 -93 0 -82 7
13 9 13 11 -1 11 -9 0 -19 -3 -22 -7z"/>
<path d="M542 1537 c-22 -23 -22 -29 -22 -313 l-1 -289 -59 -79 c-34 -45 -60
-90 -60 -103 0 -36 26 -80 52 -87 38 -10 1074 -7 1101 3 26 10 50 62 44 97 -1
11 -28 53 -60 93 l-57 73 0 289 0 290 -25 24 -24 25 -434 0 -434 0 -21 -23z
m886 -29 c9 -9 12 -87 12 -290 l0 -278 -440 0 -440 0 0 278 c0 203 3 281 12
290 17 17 839 17 856 0z m80 -675 l51 -68 -279 -3 c-154 -1 -406 -1 -559 0
l-280 3 51 68 50 67 457 0 457 0 52 -67z m-145 -112 c123 -1 186 -4 182 -11
-8 -14 -1081 -14 -1090 0 -5 8 619 20 700 13 11 -1 105 -2 208 -2z"/>
<path d="M607 1473 c-4 -3 -7 -118 -7 -255 l0 -248 400 0 400 0 0 255 0 255
-393 0 c-217 0 -397 -3 -400 -7z m321 -85 c2 -10 -7 -18 -22 -22 -23 -6 -26
-11 -26 -54 0 -27 -6 -57 -14 -68 -10 -13 -11 -23 -4 -31 6 -7 13 -36 17 -65
5 -45 9 -53 29 -56 14 -2 22 -10 22 -23 0 -14 -7 -19 -29 -19 -43 0 -71 40
-71 102 0 41 -3 51 -20 55 -11 3 -20 11 -20 19 0 7 9 18 20 24 15 8 20 21 20
55 0 59 8 75 44 91 36 15 50 13 54 -8z m227 -11 c8 -12 15 -43 15 -69 0 -37 4
-50 20 -58 11 -6 20 -17 20 -24 0 -8 -9 -16 -20 -19 -17 -4 -20 -14 -20 -55 0
-62 -28 -102 -71 -102 -22 0 -29 5 -29 19 0 13 8 21 23 23 19 3 23 11 27 54 3
28 10 58 17 65 9 11 8 19 -3 33 -8 11 -14 41 -14 68 0 42 -3 48 -25 54 -23 6
-33 23 -20 36 11 11 67 -6 80 -25z"/>
<path d="M860 821 c0 -5 -3 -16 -6 -25 -5 -14 11 -16 138 -16 80 0 147 3 150
6 3 3 4 14 1 25 -5 18 -15 19 -144 19 -78 0 -139 -4 -139 -9z"/>
<path d="M1688 1370 c-11 -7 -18 -23 -18 -40 0 -27 -3 -30 -30 -30 -35 0 -50
-23 -50 -74 0 -38 31 -81 53 -73 7 2 14 19 17 38 l5 34 67 6 c38 3 71 9 75 12
9 10 4 110 -6 120 -14 14 -94 19 -113 7z m22 -30 c0 -5 -4 -10 -10 -10 -5 0
-10 5 -10 10 0 6 5 10 10 10 6 0 10 -4 10 -10z m13 -37 c-7 -2 -21 -2 -30 0
-10 3 -4 5 12 5 17 0 24 -2 18 -5z"/>
<path d="M190 1353 c-70 -36 -99 -143 -55 -209 97 -148 328 -12 247 145 -36
71 -123 100 -192 64z m69 -87 c9 -10 8 -15 -3 -19 -7 -3 -18 -1 -23 4 -18 18
-44 -2 -41 -30 3 -23 7 -26 41 -24 40 3 49 -10 18 -27 -29 -15 -49 -12 -71 10
-24 24 -26 63 -4 84 19 20 68 21 83 2z m54 -8 c4 -10 8 -10 14 -2 6 9 11 8 20
-2 8 -8 9 -15 3 -19 -6 -4 -8 -11 -5 -16 4 -5 0 -16 -9 -24 -11 -11 -16 -12
-19 -2 -4 9 -8 9 -15 -1 -16 -23 -23 14 -13 71 2 12 19 8 24 -5z"/>
<path d="M174 918 c-3 -5 -10 -6 -15 -3 -5 4 -12 -1 -15 -9 -3 -9 -10 -13 -15
-10 -5 3 -9 0 -9 -6 0 -6 -9 -21 -20 -33 -11 -12 -18 -27 -16 -33 3 -7 2 -15
-1 -18 -11 -11 -12 -56 -1 -56 5 0 8 -7 4 -15 -3 -9 0 -15 9 -15 9 0 12 -6 9
-15 -4 -9 0 -15 10 -15 9 0 16 -7 16 -16 0 -8 5 -12 11 -8 6 3 15 0 20 -7 10
-17 111 -18 117 -1 2 6 10 8 18 5 9 -3 14 1 14 12 0 9 5 13 10 10 6 -3 10 1
10 9 0 9 3 16 8 16 15 0 30 48 19 59 -8 8 -7 11 3 11 10 0 11 3 3 11 -6 6 -9
18 -6 25 3 8 0 14 -7 14 -7 0 -10 7 -6 15 3 9 0 15 -9 15 -8 0 -15 5 -15 11 0
14 -20 33 -45 44 -27 11 -95 13 -101 3z m110 -57 c9 -8 16 -24 16 -37 0 -13 5
-24 10 -24 6 0 10 -7 10 -15 0 -8 -5 -15 -11 -15 -5 0 -7 -4 -4 -10 3 -5 1
-10 -4 -10 -6 0 -11 7 -11 15 0 8 -5 15 -12 15 -9 0 -9 3 0 12 18 18 14 46 -7
58 -11 5 -41 10 -68 10 -33 0 -43 3 -33 9 20 13 95 7 114 -8z m-44 -51 c0 -5
-9 -10 -20 -10 -11 0 -20 5 -20 10 0 6 9 10 20 10 11 0 20 -4 20 -10z m-100
-30 c0 -16 -4 -30 -10 -30 -11 0 -14 43 -3 53 11 12 13 8 13 -23z m97 -27 c3
-10 13 -26 21 -35 13 -16 12 -18 -11 -29 -27 -12 -77 -5 -77 11 0 6 11 10 25
10 18 0 25 5 25 20 0 11 -4 20 -10 20 -5 0 -10 5 -10 10 0 17 30 11 37 -7z"/>
<path d="M1671 836 l-34 -35 58 -65 c32 -36 60 -66 64 -66 9 0 111 117 111
127 0 4 -14 23 -31 41 -26 28 -36 32 -83 32 -46 0 -56 -4 -85 -34z"/>
<path d="M298 460 c3 -101 5 -110 23 -110 17 0 19 8 20 68 l1 67 20 -67 c15
-50 26 -68 38 -68 12 0 23 18 38 68 l20 67 1 -67 c1 -61 3 -68 21 -68 19 0 20
7 20 110 l0 110 -30 0 c-28 0 -31 -4 -47 -60 -9 -33 -19 -60 -23 -60 -4 0 -14
27 -23 60 -16 58 -18 60 -50 60 l-32 0 3 -110z"/>
<path d="M540 480 c0 -106 14 -130 78 -130 66 0 82 27 82 139 0 80 0 81 -25
81 -24 0 -25 -2 -25 -73 0 -80 -14 -113 -43 -101 -14 5 -17 20 -17 90 0 83 0
84 -25 84 -25 0 -25 -1 -25 -90z"/>
<path d="M730 460 l0 -110 65 0 c62 0 65 1 65 24 0 22 -4 24 -37 23 l-38 -2 0
88 0 87 -27 0 -28 0 0 -110z"/>
<path d="M840 550 c0 -15 7 -20 25 -20 25 0 25 -1 25 -90 0 -89 0 -90 25 -90
25 0 25 1 25 90 l0 90 30 0 c23 0 30 4 30 20 0 18 -7 20 -80 20 -73 0 -80 -2
-80 -20z"/>
<path d="M1020 460 l0 -110 25 0 25 0 0 110 0 110 -25 0 -25 0 0 -110z"/>
<path d="M1210 460 l0 -110 65 0 c63 0 65 1 65 26 0 23 -3 25 -37 22 l-38 -3
0 88 0 87 -27 0 -28 0 0 -110z"/>
<path d="M1371 544 c-16 -20 -21 -41 -21 -84 0 -76 25 -110 80 -110 40 0 80
29 80 57 0 18 -40 16 -62 -3 -14 -14 -20 -14 -33 -4 -15 13 -21 83 -9 114 9
23 41 20 49 -4 4 -13 15 -20 31 -20 30 0 31 19 3 54 -16 20 -29 26 -59 26 -30
0 -43 -6 -59 -26z"/>
<path d="M1538 460 l3 -110 42 0 c63 0 84 9 97 41 10 24 10 33 -4 53 -10 15
-12 27 -6 31 17 10 11 61 -8 78 -13 12 -36 17 -73 17 l-54 0 3 -110z m89 54
c3 -9 0 -20 -8 -25 -23 -14 -29 -11 -29 16 0 28 27 35 37 9z m8 -94 c0 -8 -10
-16 -22 -18 -18 -3 -23 2 -23 18 0 16 5 21 23 18 12 -2 22 -10 22 -18z"/>
<path d="M1092 443 c2 -14 15 -19 51 -21 42 -3 47 -1 47 17 0 18 -6 21 -51 21
-43 0 -50 -3 -47 -17z"/>
<path d="M1417 284 c-4 -4 -7 -52 -7 -106 l0 -98 108 0 109 0 -1 103 -1 102
-101 3 c-55 1 -103 0 -107 -4z m113 -94 c0 -5 -7 -10 -15 -10 -11 0 -15 -12
-15 -45 0 -33 -4 -45 -15 -45 -11 0 -15 11 -15 41 0 28 -6 46 -17 55 -16 12
-12 13 30 14 26 0 47 -4 47 -10z m70 0 c0 -5 -7 -10 -15 -10 -22 0 -18 -18 5
-25 30 -10 27 -53 -5 -61 -29 -7 -64 14 -44 27 7 4 19 5 28 3 9 -3 6 2 -6 12
-13 9 -23 27 -23 40 0 20 5 24 30 24 17 0 30 -4 30 -10z"/>
<path d="M944 254 c-10 -8 -12 -12 -4 -8 8 5 35 11 60 15 l45 6 -41 2 c-23 0
-48 -5 -60 -15z"/>
<path d="M1092 240 c14 -22 24 -19 15 5 -4 8 -11 15 -17 15 -6 0 -6 -7 2 -20z"/>
<path d="M1058 232 c-19 -4 -24 -17 -9 -26 5 -3 14 1 21 9 15 18 12 23 -12 17z"/>
<path d="M1131 213 c0 -6 -4 -20 -7 -30 -5 -14 -4 -15 5 -7 7 7 11 20 8 30 -3
11 -5 14 -6 7z"/>
<path d="M882 156 c7 -8 15 -12 17 -11 5 6 -10 25 -20 25 -5 0 -4 -6 3 -14z"/>
<path d="M1061 141 c-17 -16 -38 -31 -48 -34 -12 -3 -9 -5 9 -6 14 0 28 4 30
10 3 9 9 9 25 0 20 -10 21 -9 20 24 -1 19 -3 35 -4 35 -1 0 -16 -13 -32 -29z"/>
<path d="M910 115 c-17 -20 7 -20 34 0 19 15 19 15 -1 15 -11 0 -26 -7 -33
-15z"/>
<path d="M978 123 c6 -2 18 -2 25 0 6 3 1 5 -13 5 -14 0 -19 -2 -12 -5z"/>
</g>
</svg>
